<?xml version="1.0" encoding="UTF-8" standalone="no"?><!-- Generator: Gravit.io --><svg xmlns="http://www.w3.org/2000/svg" xmlns:xlink="http://www.w3.org/1999/xlink" style="isolation:isolate" viewBox="0 0 13 13" width="32" height="32"><path d=" M 12.456 2.757 L 11.408 2.757 L 11.408 2.495 L 10.884 2.495 L 10.884 2.757 L 5.116 2.757 L 5.116 2.495 L 4.592 2.495 L 4.592 2.757 L 3.544 2.757 L 3.544 2.495 L 3.02 2.495 L 3.02 13.505 L 3.544 13.505 L 3.544 13.243 L 4.592 13.243 L 4.592 13.505 L 5.116 13.505 L 5.116 13.243 L 10.884 13.243 L 10.884 13.505 L 11.408 13.505 L 11.408 13.243 L 12.456 13.243 L 12.456 13.505 L 12.98 13.505 L 12.98 2.495 L 12.456 2.495 L 12.456 2.757 L 12.456 2.757 Z  M 4.592 12.719 L 3.544 12.719 L 3.544 11.819 L 4.592 11.819 L 4.592 12.719 Z  M 4.592 11.297 L 3.544 11.297 L 3.544 10.398 L 4.592 10.398 L 4.592 11.297 Z  M 4.592 9.874 L 3.544 9.874 L 3.544 8.974 L 4.592 8.974 L 4.592 9.874 Z  M 4.592 8.45 L 3.544 8.45 L 3.544 7.55 L 4.592 7.55 L 4.592 8.45 L 4.592 8.45 Z  M 4.592 7.028 L 3.544 7.028 L 3.544 6.129 L 4.592 6.129 L 4.592 7.028 L 4.592 7.028 Z  M 4.592 5.604 L 3.544 5.604 L 3.544 4.705 L 4.592 4.705 L 4.592 5.604 Z  M 4.592 4.181 L 3.544 4.181 L 3.544 3.281 L 4.592 3.281 L 4.592 4.181 L 4.592 4.181 Z  M 10.884 11.081 L 5.116 11.081 L 5.116 10.688 L 10.884 10.688 L 10.884 11.081 Z  M 6.756 9.581 L 6.756 6.421 L 9.506 8 L 6.756 9.581 L 6.756 9.581 Z  M 10.884 5.314 L 5.116 5.314 L 5.116 4.921 L 10.884 4.921 L 10.884 5.314 Z  M 12.456 12.719 L 11.408 12.719 L 11.408 11.819 L 12.456 11.819 L 12.456 12.719 Z  M 12.456 11.297 L 11.408 11.297 L 11.408 10.398 L 12.456 10.398 L 12.456 11.297 Z  M 12.456 9.874 L 11.408 9.874 L 11.408 8.974 L 12.456 8.974 L 12.456 9.874 Z  M 12.456 8.45 L 11.408 8.45 L 11.408 7.55 L 12.456 7.55 L 12.456 8.45 L 12.456 8.45 Z  M 12.456 7.028 L 11.408 7.028 L 11.408 6.129 L 12.456 6.129 L 12.456 7.028 L 12.456 7.028 Z  M 12.456 5.604 L 11.408 5.604 L 11.408 4.705 L 12.456 4.705 L 12.456 5.604 Z  M 12.456 4.181 L 11.408 4.181 L 11.408 3.281 L 12.456 3.281 L 12.456 4.181 L 12.456 4.181 Z " fill="rgb(10,42,73)"/></svg>